<?xml version="1.0" ?><svg id="Layer_1" style="enable-background:new 0 0 24 24;" version="1.1" viewBox="0 0 24 24" xml:space="preserve" xmlns="http://www.w3.org/2000/svg" xmlns:xlink="http://www.w3.org/1999/xlink"><g id="XMLID_1347_"><path d="   M2.5,23.5c1.19,0,1.19-1,2.38-1s1.19,1,2.38,1c1.188,0,1.188-1,2.376-1s1.188,1,2.375,1s1.187-1,2.375-1c1.186,0,1.186,1,2.372,1   c1.184,0,1.184-1,2.369-1c1.187,0,1.187,1,2.374,1l-0.638-4.467c-0.241-1.686-0.362-3.388-0.362-5.091v-4.65   c0-4.527-3.416-8.48-7.934-8.773C7.615,0.198,3.5,4.119,3.5,9.001v4.942c0,1.703-0.121,3.405-0.362,5.091L2.5,23.5z" id="XMLID_1348_" style="fill:none;stroke:#303C42;stroke-linecap:round;stroke-linejoin:round;stroke-miterlimit:10;"/><ellipse cx="9" cy="9" id="XMLID_1349_" rx="0.5" ry="1.5" style="fill:none;stroke:#303C42;stroke-linecap:round;stroke-linejoin:round;stroke-miterlimit:10;"/><ellipse cx="15" cy="9" id="XMLID_1350_" rx="0.5" ry="1.5" style="fill:none;stroke:#303C42;stroke-linecap:round;stroke-linejoin:round;stroke-miterlimit:10;"/></g></svg>